<?xml version="1.0" encoding="UTF-8"?>
<svg version="1.1" xmlns="http://www.w3.org/2000/svg" width="177" height="72">
<path d="M0 0 C3.6578218 2.03993908 5.66946174 3.50419262 8 7 C8.23046875 8.9375 8.23046875 8.9375 8.1875 11 C8.18105469 11.680625 8.17460938 12.36125 8.16796875 13.0625 C8 15 8 15 7 18 C8.98 18.66 10.96 19.32 13 20 C13 21.32 13 22.64 13 24 C9.73045798 23.43628586 8.17424117 22.50037734 6 20 C5.401875 20.763125 4.80375 21.52625 4.1875 22.3125 C2 25 2 25 0.25 26.375 C-1.79579352 29.03453157 -1.18248438 31.77610921 -1 35 C-2.32 35 -3.64 35 -5 35 C-4.87625 34.01 -4.7525 33.02 -4.625 32 C-4.56228329 26.88858819 -7.78804725 23.68036253 -11 20 C-11.99 20.33 -12.98 20.66 -14 21 C-14.33 21.99 -14.66 22.98 -15 24 C-16.65 23.67 -18.3 23.34 -20 23 C-19.505 21.515 -19.505 21.515 -19 20 C-15.9375 18.8125 -15.9375 18.8125 -13 18 C-13.33 17.01 -13.66 16.02 -14 15 C-14.40109454 10.74839783 -14.26378256 8.4993027 -12.25 4.6875 C-8.57282929 0.29532387 -5.73414915 -0.6880979 0 0 Z " fill="#4F45E3" transform="translate(43,21)"/>
<path d="M0 0 C2.22439988 1.67490442 2.91651403 2.58326589 3.46875 5.33984375 C3.5524963 12.30125468 3.5524963 12.30125468 0.875 15.6875 C-2.59336283 17.27088303 -4.37790217 17.010818 -8 16 C-8 17.98 -8 19.96 -8 22 C-9.32 22 -10.64 22 -12 22 C-12 14.74 -12 7.48 -12 0 C-4.61538462 -1.23076923 -4.61538462 -1.23076923 0 0 Z M-5 2 C-5.99 2.66 -6.98 3.32 -8 4 C-8.36297936 5.97747122 -8.36297936 5.97747122 -8.1875 8.125 C-8.125625 9.40375 -8.06375 10.6825 -8 12 C-5.525 12.99 -5.525 12.99 -3 14 C-0.4856192 12.1142144 -0.02748474 11.16490841 0.5 8 C0.31989303 4.79039129 0.31989303 4.79039129 -2.5 3.125 C-3.325 2.75375 -4.15 2.3825 -5 2 Z " fill="#3A81F5" transform="translate(168,28)"/>
<path d="M0 0 C7.83790137 5.70265914 11.8016769 12.04678876 13.5390625 21.5234375 C13.5390625 22.8434375 13.5390625 24.1634375 13.5390625 25.5234375 C12.8790625 25.5234375 12.2190625 25.5234375 11.5390625 25.5234375 C11.39210937 24.83378906 11.24515625 24.14414062 11.09375 23.43359375 C8.86917076 14.11337385 5.79194094 7.2329231 -2.5234375 2.0234375 C-9.01671136 -1.66941967 -15.96103937 -2.65267224 -23.2109375 -0.7578125 C-31.0228961 1.8744779 -36.26245277 4.88402845 -40.2109375 12.3359375 C-42.23159788 16.66963678 -43.50802661 20.84551131 -44.4609375 25.5234375 C-45.1209375 25.5234375 -45.7809375 25.5234375 -46.4609375 25.5234375 C-45.38155982 15.73459851 -42.51907181 7.5031491 -34.7109375 1.0859375 C-24.07437579 -6.07953251 -11.01796071 -6.61077643 0 0 Z " fill="#3A7FF1" transform="translate(56.4609375,10.4765625)"/>
<path d="M0 0 C0.99 0 1.98 0 3 0 C3.06058594 1.13179687 3.12117187 2.26359375 3.18359375 3.4296875 C3.26799917 4.91147145 3.35264717 6.3932416 3.4375 7.875 C3.47681641 8.62136719 3.51613281 9.36773437 3.55664062 10.13671875 C3.71573624 14.19986864 3.71573624 14.19986864 5 18 C7.9737344 19.09036928 8.88407501 19.03864166 12 18 C13.585869 14.828262 13.37866445 11.36486178 13.5625 7.875 C13.60568359 7.12089844 13.64886719 6.36679687 13.69335938 5.58984375 C13.7994832 3.72678112 13.90025001 1.86341476 14 0 C14.99 0 15.98 0 17 0 C17.08103404 2.91722548 17.14051081 5.83219516 17.1875 8.75 C17.21263672 9.575 17.23777344 10.4 17.26367188 11.25 C17.33722909 17.33072996 17.33722909 17.33072996 15.73046875 20.51953125 C12.88876577 22.95069474 9.6074321 23.20392891 6 23 C3.56936663 21.86225672 1.88186104 20.88186104 0 19 C-0.08651611 17.58429877 -0.10704904 16.164405 -0.09765625 14.74609375 C-0.09443359 13.89208984 -0.09121094 13.03808594 -0.08789062 12.15820312 C-0.07951172 11.26037109 -0.07113281 10.36253906 -0.0625 9.4375 C-0.05798828 8.53580078 -0.05347656 7.63410156 -0.04882812 6.70507812 C-0.03700225 4.46998686 -0.0205222 2.23502563 0 0 Z " fill="#3A81F5" transform="translate(135,22)"/>
<path d="M0 0 C1.32 0 2.64 0 4 0 C4.33 3.3 4.66 6.6 5 10 C5.556875 9.34 6.11375 8.68 6.6875 8 C9 6 9 6 11.75 5.75 C12.4925 5.8325 13.235 5.915 14 6 C12.35 7.98 10.7 9.96 9 12 C10.20632452 15.43338516 11.38477184 17.50364585 14 20 C14 20.66 14 21.32 14 22 C9.16743695 21.58578031 7.17320782 19.53586014 4 16 C4 17.98 4 19.96 4 22 C2.68 22 1.36 22 0 22 C0 14.74 0 7.48 0 0 Z " fill="#3A81F6" transform="translate(118,22)"/>
<path d="M0 0 C5.16818759 3.12314132 9.07049266 7.84033475 12 13.0625 C12.73563779 16.25026376 12.690265 19.24199254 12.5625 22.5 C11.9025 22.17 11.2425 21.84 10.5625 21.5 C10.08383452 19.97644279 9.67879486 18.42940513 9.3125 16.875 C7.3940013 10.16984704 4.35068672 6.22867576 -1.5625 2.5625 C-7.96281772 0.29187731 -15.6800802 0.32086017 -21.875 3.125 C-27.13455836 6.21950107 -30.67017834 10.60892779 -32.4375 16.5 C-32.81343066 18.4924325 -33.15729545 20.4918674 -33.4375 22.5 C-34.0975 22.5 -34.7575 22.5 -35.4375 22.5 C-35.24332914 14.87438064 -33.29731698 9.49151677 -27.94921875 3.9609375 C-20.52768201 -2.59762985 -9.12225371 -4.04241047 0 0 Z " fill="#3A81F5" transform="translate(51.4375,13.5)"/>
<path d="M0 0 C2.32104939 3.31022145 2.21087089 6.29993915 2.125 10.25 C2.10695313 11.32765625 2.08890625 12.4053125 2.0703125 13.515625 C2.04710938 14.33546875 2.02390625 15.1553125 2 16 C0.68 16 -0.64 16 -2 16 C-2.33 12.04 -2.66 8.08 -3 4 C-4.65 3.67 -6.3 3.34 -8 3 C-8.33 7.29 -8.66 11.58 -9 16 C-9.99 16 -10.98 16 -12 16 C-12 10.72 -12 5.44 -12 0 C-4.32786885 -1.27868852 -4.32786885 -1.27868852 0 0 Z " fill="#3A81F6" transform="translate(113,28)"/>
<path d="M0 0 C3.92944487 2.74656043 7.23033713 5.81259727 8.484375 10.5546875 C8.76953125 12.76171875 8.76953125 12.76171875 8.89453125 16.32421875 C8.23453125 16.32421875 7.57453125 16.32421875 6.89453125 16.32421875 C6.65669922 15.43669922 6.65669922 15.43669922 6.4140625 14.53125 C4.57040197 8.28725053 2.44806409 4.34108874 -3.41796875 1.01171875 C-8.42239642 -0.26848368 -12.48223648 -0.24868676 -17.29296875 1.44921875 C-23.16268331 5.36236179 -25.63751431 9.65169857 -27.10546875 16.32421875 C-27.76546875 16.32421875 -28.42546875 16.32421875 -29.10546875 16.32421875 C-28.56756212 9.60038584 -26.62434424 5.64933459 -21.66796875 1.07421875 C-14.56406901 -3.77722498 -7.47470989 -4.20176 0 0 Z " fill="#3881F5" transform="translate(50.10546875,19.67578125)"/>
<path d="M0 0 C0.99 0 1.98 0 3 0 C3 6.27 3 12.54 3 19 C6.3 19 9.6 19 13 19 C13 19.99 13 20.98 13 22 C8.71 22 4.42 22 0 22 C0 14.74 0 7.48 0 0 Z " fill="#3A81F5" transform="translate(78,22)"/>
<path d="M0 0 C0.99 0 1.98 0 3 0 C3 5.28 3 10.56 3 16 C2.01 16 1.02 16 0 16 C0 10.72 0 5.44 0 0 Z " fill="#3A82F6" transform="translate(94,28)"/>
<path d="M0 0 C1.67542976 0.28604898 3.34385343 0.61781233 5 1 C5.625 2.875 5.625 2.875 6 5 C5.34 5.66 4.68 6.32 4 7 C1.375 6.625 1.375 6.625 -1 6 C-1.042721 4.33388095 -1.04063832 2.66617115 -1 1 C-0.67 0.67 -0.34 0.34 0 0 Z " fill="#E96E29" transform="translate(38,29)"/>
<path d="M0 0 C1.32 0 2.64 0 4 0 C3.67 1.32 3.34 2.64 3 4 C1.68 3.67 0.36 3.34 -1 3 C-0.67 2.01 -0.34 1.02 0 0 Z " fill="#3B81F5" transform="translate(94,22)"/>
</svg>
