<svg width="584" height="473" viewBox="0 0 584 473" fill="none" xmlns="http://www.w3.org/2000/svg">
<g clip-path="url(#paint0_diamond_138_359_clip_path)" data-figma-skip-parse="true"><g transform="matrix(0 0.23625 -0.292 0 292 236.25)"><rect x="0" y="0" width="1004.23" height="1003.42" fill="url(#paint0_diamond_138_359)" opacity="1" shape-rendering="crispEdges"/><rect x="0" y="0" width="1004.23" height="1003.42" transform="scale(1 -1)" fill="url(#paint0_diamond_138_359)" opacity="1" shape-rendering="crispEdges"/><rect x="0" y="0" width="1004.23" height="1003.42" transform="scale(-1 1)" fill="url(#paint0_diamond_138_359)" opacity="1" shape-rendering="crispEdges"/><rect x="0" y="0" width="1004.23" height="1003.42" transform="scale(-1)" fill="url(#paint0_diamond_138_359)" opacity="1" shape-rendering="crispEdges"/></g></g><path d="M369 0H20C8.95431 0 0 8.95431 0 20V65.5C0 76.5457 8.9543 85.5 20 85.5H105C127.283 84.1515 135.516 88.0892 140.913 101.963C141.687 103.953 142 106.088 142 108.224V452.5C142 463.546 150.954 472.5 162 472.5H202C213.046 472.5 222 463.546 222 452.5V130C222.465 97.3353 225.876 85.7536 241.5 85.5H286C313.5 85.5 312.79 88.4935 313.5 118.5V452.5C313.5 463.546 322.454 472.5 333.5 472.5H564C575.046 472.5 584 463.546 584 452.5V405C584 393.954 575.046 385 564 385H434C399.42 389.614 389.227 383.583 389 356V20C389 8.95431 380.046 0 369 0Z" data-figma-gradient-fill="{&#34;type&#34;:&#34;GRADIENT_DIAMOND&#34;,&#34;stops&#34;:[{&#34;color&#34;:{&#34;r&#34;:0.41960784792900085,&#34;g&#34;:0.27450981736183167,&#34;b&#34;:0.75686275959014893,&#34;a&#34;:1.0},&#34;position&#34;:0.0},{&#34;color&#34;:{&#34;r&#34;:0.90196079015731812,&#34;g&#34;:0.27843138575553894,&#34;b&#34;:1.0,&#34;a&#34;:1.0},&#34;position&#34;:0.50},{&#34;color&#34;:{&#34;r&#34;:0.0,&#34;g&#34;:0.40000000596046448,&#34;b&#34;:0.80000001192092896,&#34;a&#34;:1.0},&#34;position&#34;:1.0}],&#34;stopsVar&#34;:[{&#34;color&#34;:{&#34;r&#34;:0.41960784792900085,&#34;g&#34;:0.27450981736183167,&#34;b&#34;:0.75686275959014893,&#34;a&#34;:1.0},&#34;position&#34;:0.0},{&#34;color&#34;:{&#34;r&#34;:0.90196079015731812,&#34;g&#34;:0.27843138575553894,&#34;b&#34;:1.0,&#34;a&#34;:1.0},&#34;position&#34;:0.50},{&#34;color&#34;:{&#34;r&#34;:0.0,&#34;g&#34;:0.40000000596046448,&#34;b&#34;:0.80000001192092896,&#34;a&#34;:1.0},&#34;position&#34;:1.0}],&#34;transform&#34;:{&#34;m00&#34;:3.5759687989607783e-14,&#34;m01&#34;:-584.0,&#34;m02&#34;:584.0,&#34;m10&#34;:472.50,&#34;m11&#34;:2.8932280562218166e-14,&#34;m12&#34;:-2.8932280562218166e-14},&#34;opacity&#34;:1.0,&#34;blendMode&#34;:&#34;NORMAL&#34;,&#34;visible&#34;:true}"/>
<defs>
<clipPath id="paint0_diamond_138_359_clip_path"><path d="M369 0H20C8.95431 0 0 8.95431 0 20V65.5C0 76.5457 8.9543 85.5 20 85.5H105C127.283 84.1515 135.516 88.0892 140.913 101.963C141.687 103.953 142 106.088 142 108.224V452.5C142 463.546 150.954 472.5 162 472.5H202C213.046 472.5 222 463.546 222 452.5V130C222.465 97.3353 225.876 85.7536 241.5 85.5H286C313.5 85.5 312.79 88.4935 313.5 118.5V452.5C313.5 463.546 322.454 472.5 333.5 472.5H564C575.046 472.5 584 463.546 584 452.5V405C584 393.954 575.046 385 564 385H434C399.42 389.614 389.227 383.583 389 356V20C389 8.95431 380.046 0 369 0Z"/></clipPath><linearGradient id="paint0_diamond_138_359" x1="0" y1="0" x2="500" y2="500" gradientUnits="userSpaceOnUse">
<stop stop-color="#6B46C1"/>
<stop offset="0.5" stop-color="#E647FF"/>
<stop offset="1" stop-color="#0066CC"/>
</linearGradient>
</defs>
</svg>
